<?xml version='1.0' encoding='UTF-8' standalone='no'?>
<!-- Created with Fritzing (http://www.fritzing.org/) -->
<svg xmlns="http://www.w3.org/2000/svg" y="0in"  width="2.52003in" height="1.64514in" viewBox="0 0 181.442 118.45" x="0in" xmlns:svg="http://www.w3.org/2000/svg" baseProfile="tiny" version="1.2">
 <g partID="57710">
  <g id="board" >
   <rect id="boardoutline" fill="none" y="0.288" fill-opacity="0.5"  stroke="black" width="180.866" height="117.874" stroke-width="0.5" x="0.288"/>
  </g>
 </g>
 <g partID="57810">
  <g transform="translate(92.3304,39.7373)">
   <g transform="matrix(0,1,-1,0,0,0)">
    <g id="copper0" >
     <rect id="square" fill="black" y="2.34"  stroke="black" width="3.96" height="3.96" stroke-width="2.16" x="2.34"/>
     <circle cy="4.32" fill="black" id="connector0pin" r="1.98"  stroke="black" stroke-width="2.16" cx="4.32"/>
     <circle cy="4.32" fill="black" id="connector15pin" r="1.98"  stroke="black" stroke-width="2.16" cx="25.92"/>
     <circle cy="11.52" fill="black" id="connector1pin" r="1.98"  stroke="black" stroke-width="2.16" cx="4.32"/>
     <circle cy="11.52" fill="black" id="connector14pin" r="1.98"  stroke="black" stroke-width="2.16" cx="25.92"/>
     <circle cy="18.72" fill="black" id="connector2pin" r="1.98"  stroke="black" stroke-width="2.16" cx="4.32"/>
     <circle cy="18.72" fill="black" id="connector13pin" r="1.98"  stroke="black" stroke-width="2.16" cx="25.92"/>
     <circle cy="25.92" fill="black" id="connector3pin" r="1.98"  stroke="black" stroke-width="2.16" cx="4.32"/>
     <circle cy="25.92" fill="black" id="connector12pin" r="1.98"  stroke="black" stroke-width="2.16" cx="25.92"/>
     <circle cy="33.12" fill="black" id="connector4pin" r="1.98"  stroke="black" stroke-width="2.16" cx="4.32"/>
     <circle cy="33.12" fill="black" id="connector11pin" r="1.98"  stroke="black" stroke-width="2.16" cx="25.92"/>
     <circle cy="40.32" fill="black" id="connector5pin" r="1.98"  stroke="black" stroke-width="2.16" cx="4.32"/>
     <circle cy="40.32" fill="black" id="connector10pin" r="1.98"  stroke="black" stroke-width="2.16" cx="25.92"/>
     <circle cy="47.52" fill="black" id="connector6pin" r="1.98"  stroke="black" stroke-width="2.16" cx="4.32"/>
     <circle cy="47.52" fill="black" id="connector9pin" r="1.98"  stroke="black" stroke-width="2.16" cx="25.92"/>
     <circle cy="54.72" fill="black" id="connector7pin" r="1.98"  stroke="black" stroke-width="2.16" cx="4.32"/>
     <circle cy="54.72" fill="black" id="connector8pin" r="1.98"  stroke="black" stroke-width="2.16" cx="25.92"/>
    </g>
   </g>
  </g>
 </g>
 <g partID="57840">
  <g transform="translate(171.53,39.7373)">
   <g transform="matrix(0,1,-1,0,0,0)">
    <g id="copper0" >
     <rect id="square" fill="black" y="2.34"  stroke="black" width="3.96" height="3.96" stroke-width="2.16" x="2.34"/>
     <circle cy="4.32" fill="black" id="connector0pin" r="1.98"  stroke="black" stroke-width="2.16" cx="4.32"/>
     <circle cy="4.32" fill="black" id="connector15pin" r="1.98"  stroke="black" stroke-width="2.16" cx="25.92"/>
     <circle cy="11.52" fill="black" id="connector1pin" r="1.98"  stroke="black" stroke-width="2.16" cx="4.32"/>
     <circle cy="11.52" fill="black" id="connector14pin" r="1.98"  stroke="black" stroke-width="2.16" cx="25.92"/>
     <circle cy="18.72" fill="black" id="connector2pin" r="1.98"  stroke="black" stroke-width="2.16" cx="4.32"/>
     <circle cy="18.72" fill="black" id="connector13pin" r="1.98"  stroke="black" stroke-width="2.16" cx="25.92"/>
     <circle cy="25.92" fill="black" id="connector3pin" r="1.98"  stroke="black" stroke-width="2.16" cx="4.32"/>
     <circle cy="25.92" fill="black" id="connector12pin" r="1.98"  stroke="black" stroke-width="2.16" cx="25.92"/>
     <circle cy="33.12" fill="black" id="connector4pin" r="1.98"  stroke="black" stroke-width="2.16" cx="4.32"/>
     <circle cy="33.12" fill="black" id="connector11pin" r="1.98"  stroke="black" stroke-width="2.16" cx="25.92"/>
     <circle cy="40.32" fill="black" id="connector5pin" r="1.98"  stroke="black" stroke-width="2.16" cx="4.32"/>
     <circle cy="40.32" fill="black" id="connector10pin" r="1.98"  stroke="black" stroke-width="2.16" cx="25.92"/>
     <circle cy="47.52" fill="black" id="connector6pin" r="1.98"  stroke="black" stroke-width="2.16" cx="4.32"/>
     <circle cy="47.52" fill="black" id="connector9pin" r="1.98"  stroke="black" stroke-width="2.16" cx="25.92"/>
     <circle cy="54.72" fill="black" id="connector7pin" r="1.98"  stroke="black" stroke-width="2.16" cx="4.32"/>
     <circle cy="54.72" fill="black" id="connector8pin" r="1.98"  stroke="black" stroke-width="2.16" cx="25.92"/>
    </g>
   </g>
  </g>
 </g>
 <g partID="854114710">
  <g transform="translate(3.77035,82.2173)">
   <g id="copper0" >
    <rect id="square" fill="black" y="2.952"  width="4.176" stroke="black" height="4.176" stroke-width="2.16" x="2.952"/>
    <circle cy="5.04" fill="black" id="connector0pin" r="2.088"  stroke="black" stroke-width="2.16" cx="5.04"/>
    <circle cy="12.24" fill="black" id="connector1pin" r="2.088"  stroke="black" stroke-width="2.16" cx="5.04"/>
   </g>
  </g>
 </g>
 <g partID="854129140">
  <g transform="translate(39.7704,13.0973)">
   <g transform="matrix(0,-1,1,0,0,0)">
    <g id="copper0" >
     <rect id="square" fill="black" y="2.952"  width="4.176" stroke="black" height="4.176" stroke-width="2.16" x="2.952"/>
     <circle cy="5.04" fill="black" id="connector0pin" r="2.088"  stroke="black" stroke-width="2.16" cx="5.04"/>
     <circle cy="12.24" fill="black" id="connector1pin" r="2.088"  stroke="black" stroke-width="2.16" cx="5.04"/>
    </g>
   </g>
  </g>
 </g>
 <g partID="854114770">
  <g transform="translate(13.8504,41.8973)">
   <g transform="matrix(-1,0,0,-1,0,0)">
    <g id="copper0" >
     <rect id="square" fill="black" y="2.952"  width="4.176" stroke="black" height="4.176" stroke-width="2.16" x="2.952"/>
     <circle cy="5.04" fill="black" id="connector0pin" r="2.088"  stroke="black" stroke-width="2.16" cx="5.04"/>
     <circle cy="12.24" fill="black" id="connector1pin" r="2.088"  stroke="black" stroke-width="2.16" cx="5.04"/>
    </g>
   </g>
  </g>
 </g>
 <g partID="854129810">
  <g transform="translate(39.7704,113.897)">
   <g transform="matrix(0,-1,1,0,0,0)">
    <g id="copper0" >
     <rect id="square" fill="black" y="2.952"  width="4.176" stroke="black" height="4.176" stroke-width="2.16" x="2.952"/>
     <circle cy="5.04" fill="black" id="connector0pin" r="2.088"  stroke="black" stroke-width="2.16" cx="5.04"/>
     <circle cy="12.24" fill="black" id="connector1pin" r="2.088"  stroke="black" stroke-width="2.16" cx="5.04"/>
    </g>
   </g>
  </g>
 </g>
 <g partID="854129300">
  <g transform="translate(85.8504,3.01732)">
   <g transform="matrix(0,1,-1,0,0,0)">
    <g id="copper0" >
     <rect id="square" fill="black" y="2.952"  width="4.176" stroke="black" height="4.176" stroke-width="2.16" x="2.952"/>
     <circle cy="5.04" fill="black" id="connector0pin" r="2.088"  stroke="black" stroke-width="2.16" cx="5.04"/>
     <circle cy="12.24" fill="black" id="connector1pin" r="2.088"  stroke="black" stroke-width="2.16" cx="5.04"/>
    </g>
   </g>
  </g>
 </g>
 <g partID="854129800">
  <g transform="translate(85.8504,103.817)">
   <g transform="matrix(0,1,-1,0,0,0)">
    <g id="copper0" >
     <rect id="square" fill="black" y="2.952"  width="4.176" stroke="black" height="4.176" stroke-width="2.16" x="2.952"/>
     <circle cy="5.04" fill="black" id="connector0pin" r="2.088"  stroke="black" stroke-width="2.16" cx="5.04"/>
     <circle cy="12.24" fill="black" id="connector1pin" r="2.088"  stroke="black" stroke-width="2.16" cx="5.04"/>
    </g>
   </g>
  </g>
 </g>
 <g partID="854129460">
  <g transform="translate(165.05,3.01732)">
   <g transform="matrix(0,1,-1,0,0,0)">
    <g id="copper0" >
     <rect id="square" fill="black" y="2.952"  width="4.176" stroke="black" height="4.176" stroke-width="2.16" x="2.952"/>
     <circle cy="5.04" fill="black" id="connector0pin" r="2.088"  stroke="black" stroke-width="2.16" cx="5.04"/>
     <circle cy="12.24" fill="black" id="connector1pin" r="2.088"  stroke="black" stroke-width="2.16" cx="5.04"/>
    </g>
   </g>
  </g>
 </g>
 <g partID="854129790">
  <g transform="translate(165.05,103.817)">
   <g transform="matrix(0,1,-1,0,0,0)">
    <g id="copper0" >
     <rect id="square" fill="black" y="2.952"  width="4.176" stroke="black" height="4.176" stroke-width="2.16" x="2.952"/>
     <circle cy="5.04" fill="black" id="connector0pin" r="2.088"  stroke="black" stroke-width="2.16" cx="5.04"/>
     <circle cy="12.24" fill="black" id="connector1pin" r="2.088"  stroke="black" stroke-width="2.16" cx="5.04"/>
    </g>
   </g>
  </g>
 </g>
 <g partID="854129470">
  <g transform="translate(118.97,13.0973)">
   <g transform="matrix(0,-1,1,0,0,0)">
    <g id="copper0" >
     <rect id="square" fill="black" y="2.952"  width="4.176" stroke="black" height="4.176" stroke-width="2.16" x="2.952"/>
     <circle cy="5.04" fill="black" id="connector0pin" r="2.088"  stroke="black" stroke-width="2.16" cx="5.04"/>
     <circle cy="12.24" fill="black" id="connector1pin" r="2.088"  stroke="black" stroke-width="2.16" cx="5.04"/>
    </g>
   </g>
  </g>
 </g>
 <g partID="854129780">
  <g transform="translate(118.97,113.897)">
   <g transform="matrix(0,-1,1,0,0,0)">
    <g id="copper0" >
     <rect id="square" fill="black" y="2.952"  width="4.176" stroke="black" height="4.176" stroke-width="2.16" x="2.952"/>
     <circle cy="5.04" fill="black" id="connector0pin" r="2.088"  stroke="black" stroke-width="2.16" cx="5.04"/>
     <circle cy="12.24" fill="black" id="connector1pin" r="2.088"  stroke="black" stroke-width="2.16" cx="5.04"/>
    </g>
   </g>
  </g>
 </g>
</svg>
