<?xml version='1.0' encoding='UTF-8' standalone='no'?>
<!-- Created with Fritzing (http://www.fritzing.org/) -->
<svg xmlns="http://www.w3.org/2000/svg" y="0in"  width="2.52003in" height="1.64514in" viewBox="0 0 181.442 118.45" x="0in" xmlns:svg="http://www.w3.org/2000/svg" baseProfile="tiny" version="1.2">
 <g transform="matrix(-1, 0, 0, 1, 181.442, 0)">
  <g partID="57710">
   <g id="board" >
    <rect id="boardoutline" fill="none" y="0.288" fill-opacity="0.5"  stroke="black" width="180.866" height="117.874" stroke-width="0.5" x="0.288"/>
   </g>
  </g>
  <g partID="57812">
   <g transform="translate(92.3304,39.7373)">
    <g transform="matrix(0,1,-1,0,0,0)">
     <g id="copper1" >
      <g id="copper0" >
       <rect id="square" fill="none" y="2.34"  stroke="black" width="3.96" height="3.96" stroke-width="1.44" x="2.34"/>
       <circle cy="4.32" fill="none" id="connector0pin" r="1.98"  stroke="black" stroke-width="1.44" cx="4.32"/>
       <circle cy="4.32" fill="none" id="connector15pin" r="1.98"  stroke="black" stroke-width="1.44" cx="25.92"/>
       <circle cy="11.52" fill="none" id="connector1pin" r="1.98"  stroke="black" stroke-width="1.44" cx="4.32"/>
       <circle cy="11.52" fill="none" id="connector14pin" r="1.98"  stroke="black" stroke-width="1.44" cx="25.92"/>
       <circle cy="18.72" fill="none" id="connector2pin" r="1.98"  stroke="black" stroke-width="1.44" cx="4.32"/>
       <circle cy="18.72" fill="none" id="connector13pin" r="1.98"  stroke="black" stroke-width="1.44" cx="25.92"/>
       <circle cy="25.92" fill="none" id="connector3pin" r="1.98"  stroke="black" stroke-width="1.44" cx="4.32"/>
       <circle cy="25.92" fill="none" id="connector12pin" r="1.98"  stroke="black" stroke-width="1.44" cx="25.92"/>
       <circle cy="33.12" fill="none" id="connector4pin" r="1.98"  stroke="black" stroke-width="1.44" cx="4.32"/>
       <circle cy="33.12" fill="none" id="connector11pin" r="1.98"  stroke="black" stroke-width="1.44" cx="25.92"/>
       <circle cy="40.32" fill="none" id="connector5pin" r="1.98"  stroke="black" stroke-width="1.44" cx="4.32"/>
       <circle cy="40.32" fill="none" id="connector10pin" r="1.98"  stroke="black" stroke-width="1.44" cx="25.92"/>
       <circle cy="47.52" fill="none" id="connector6pin" r="1.98"  stroke="black" stroke-width="1.44" cx="4.32"/>
       <circle cy="47.52" fill="none" id="connector9pin" r="1.98"  stroke="black" stroke-width="1.44" cx="25.92"/>
       <circle cy="54.72" fill="none" id="connector7pin" r="1.98"  stroke="black" stroke-width="1.44" cx="4.32"/>
       <circle cy="54.72" fill="none" id="connector8pin" r="1.98"  stroke="black" stroke-width="1.44" cx="25.92"/>
      </g>
     </g>
    </g>
   </g>
  </g>
  <g partID="57842">
   <g transform="translate(171.53,39.7373)">
    <g transform="matrix(0,1,-1,0,0,0)">
     <g id="copper1" >
      <g id="copper0" >
       <rect id="square" fill="none" y="2.34"  stroke="black" width="3.96" height="3.96" stroke-width="1.44" x="2.34"/>
       <circle cy="4.32" fill="none" id="connector0pin" r="1.98"  stroke="black" stroke-width="1.44" cx="4.32"/>
       <circle cy="4.32" fill="none" id="connector15pin" r="1.98"  stroke="black" stroke-width="1.44" cx="25.92"/>
       <circle cy="11.52" fill="none" id="connector1pin" r="1.98"  stroke="black" stroke-width="1.44" cx="4.32"/>
       <circle cy="11.52" fill="none" id="connector14pin" r="1.98"  stroke="black" stroke-width="1.44" cx="25.92"/>
       <circle cy="18.72" fill="none" id="connector2pin" r="1.98"  stroke="black" stroke-width="1.44" cx="4.32"/>
       <circle cy="18.72" fill="none" id="connector13pin" r="1.98"  stroke="black" stroke-width="1.44" cx="25.92"/>
       <circle cy="25.92" fill="none" id="connector3pin" r="1.98"  stroke="black" stroke-width="1.44" cx="4.32"/>
       <circle cy="25.92" fill="none" id="connector12pin" r="1.98"  stroke="black" stroke-width="1.44" cx="25.92"/>
       <circle cy="33.12" fill="none" id="connector4pin" r="1.98"  stroke="black" stroke-width="1.44" cx="4.32"/>
       <circle cy="33.12" fill="none" id="connector11pin" r="1.98"  stroke="black" stroke-width="1.44" cx="25.92"/>
       <circle cy="40.32" fill="none" id="connector5pin" r="1.98"  stroke="black" stroke-width="1.44" cx="4.32"/>
       <circle cy="40.32" fill="none" id="connector10pin" r="1.98"  stroke="black" stroke-width="1.44" cx="25.92"/>
       <circle cy="47.52" fill="none" id="connector6pin" r="1.98"  stroke="black" stroke-width="1.44" cx="4.32"/>
       <circle cy="47.52" fill="none" id="connector9pin" r="1.98"  stroke="black" stroke-width="1.44" cx="25.92"/>
       <circle cy="54.72" fill="none" id="connector7pin" r="1.98"  stroke="black" stroke-width="1.44" cx="4.32"/>
       <circle cy="54.72" fill="none" id="connector8pin" r="1.98"  stroke="black" stroke-width="1.44" cx="25.92"/>
      </g>
     </g>
    </g>
   </g>
  </g>
  <g partID="854114712">
   <g transform="translate(3.77035,82.2173)">
    <g id="copper1" >
     <g id="copper0" >
      <rect id="square" fill="none" y="2.952"  width="4.176" stroke="black" height="4.176" stroke-width="1.44" x="2.952"/>
      <circle cy="5.04" fill="none" id="connector0pin" r="2.088"  stroke="black" stroke-width="1.44" cx="5.04"/>
      <circle cy="12.24" fill="none" id="connector1pin" r="2.088"  stroke="black" stroke-width="1.44" cx="5.04"/>
     </g>
    </g>
   </g>
  </g>
  <g partID="854114772">
   <g transform="translate(13.8504,41.8973)">
    <g transform="matrix(-1,0,0,-1,0,0)">
     <g id="copper1" >
      <g id="copper0" >
       <rect id="square" fill="none" y="2.952"  width="4.176" stroke="black" height="4.176" stroke-width="1.44" x="2.952"/>
       <circle cy="5.04" fill="none" id="connector0pin" r="2.088"  stroke="black" stroke-width="1.44" cx="5.04"/>
       <circle cy="12.24" fill="none" id="connector1pin" r="2.088"  stroke="black" stroke-width="1.44" cx="5.04"/>
      </g>
     </g>
    </g>
   </g>
  </g>
  <g partID="854129142">
   <g transform="translate(39.7704,13.0973)">
    <g transform="matrix(0,-1,1,0,0,0)">
     <g id="copper1" >
      <g id="copper0" >
       <rect id="square" fill="none" y="2.952"  width="4.176" stroke="black" height="4.176" stroke-width="1.44" x="2.952"/>
       <circle cy="5.04" fill="none" id="connector0pin" r="2.088"  stroke="black" stroke-width="1.44" cx="5.04"/>
       <circle cy="12.24" fill="none" id="connector1pin" r="2.088"  stroke="black" stroke-width="1.44" cx="5.04"/>
      </g>
     </g>
    </g>
   </g>
  </g>
  <g partID="854129302">
   <g transform="translate(85.8504,3.01732)">
    <g transform="matrix(0,1,-1,0,0,0)">
     <g id="copper1" >
      <g id="copper0" >
       <rect id="square" fill="none" y="2.952"  width="4.176" stroke="black" height="4.176" stroke-width="1.44" x="2.952"/>
       <circle cy="5.04" fill="none" id="connector0pin" r="2.088"  stroke="black" stroke-width="1.44" cx="5.04"/>
       <circle cy="12.24" fill="none" id="connector1pin" r="2.088"  stroke="black" stroke-width="1.44" cx="5.04"/>
      </g>
     </g>
    </g>
   </g>
  </g>
  <g partID="854129462">
   <g transform="translate(165.05,3.01732)">
    <g transform="matrix(0,1,-1,0,0,0)">
     <g id="copper1" >
      <g id="copper0" >
       <rect id="square" fill="none" y="2.952"  width="4.176" stroke="black" height="4.176" stroke-width="1.44" x="2.952"/>
       <circle cy="5.04" fill="none" id="connector0pin" r="2.088"  stroke="black" stroke-width="1.44" cx="5.04"/>
       <circle cy="12.24" fill="none" id="connector1pin" r="2.088"  stroke="black" stroke-width="1.44" cx="5.04"/>
      </g>
     </g>
    </g>
   </g>
  </g>
  <g partID="854129472">
   <g transform="translate(118.97,13.0973)">
    <g transform="matrix(0,-1,1,0,0,0)">
     <g id="copper1" >
      <g id="copper0" >
       <rect id="square" fill="none" y="2.952"  width="4.176" stroke="black" height="4.176" stroke-width="1.44" x="2.952"/>
       <circle cy="5.04" fill="none" id="connector0pin" r="2.088"  stroke="black" stroke-width="1.44" cx="5.04"/>
       <circle cy="12.24" fill="none" id="connector1pin" r="2.088"  stroke="black" stroke-width="1.44" cx="5.04"/>
      </g>
     </g>
    </g>
   </g>
  </g>
  <g partID="854129782">
   <g transform="translate(118.97,113.897)">
    <g transform="matrix(0,-1,1,0,0,0)">
     <g id="copper1" >
      <g id="copper0" >
       <rect id="square" fill="none" y="2.952"  width="4.176" stroke="black" height="4.176" stroke-width="1.44" x="2.952"/>
       <circle cy="5.04" fill="none" id="connector0pin" r="2.088"  stroke="black" stroke-width="1.44" cx="5.04"/>
       <circle cy="12.24" fill="none" id="connector1pin" r="2.088"  stroke="black" stroke-width="1.44" cx="5.04"/>
      </g>
     </g>
    </g>
   </g>
  </g>
  <g partID="854129792">
   <g transform="translate(165.05,103.817)">
    <g transform="matrix(0,1,-1,0,0,0)">
     <g id="copper1" >
      <g id="copper0" >
       <rect id="square" fill="none" y="2.952"  width="4.176" stroke="black" height="4.176" stroke-width="1.44" x="2.952"/>
       <circle cy="5.04" fill="none" id="connector0pin" r="2.088"  stroke="black" stroke-width="1.44" cx="5.04"/>
       <circle cy="12.24" fill="none" id="connector1pin" r="2.088"  stroke="black" stroke-width="1.44" cx="5.04"/>
      </g>
     </g>
    </g>
   </g>
  </g>
  <g partID="854129802">
   <g transform="translate(85.8504,103.817)">
    <g transform="matrix(0,1,-1,0,0,0)">
     <g id="copper1" >
      <g id="copper0" >
       <rect id="square" fill="none" y="2.952"  width="4.176" stroke="black" height="4.176" stroke-width="1.44" x="2.952"/>
       <circle cy="5.04" fill="none" id="connector0pin" r="2.088"  stroke="black" stroke-width="1.44" cx="5.04"/>
       <circle cy="12.24" fill="none" id="connector1pin" r="2.088"  stroke="black" stroke-width="1.44" cx="5.04"/>
      </g>
     </g>
    </g>
   </g>
  </g>
  <g partID="854129812">
   <g transform="translate(39.7704,113.897)">
    <g transform="matrix(0,-1,1,0,0,0)">
     <g id="copper1" >
      <g id="copper0" >
       <rect id="square" fill="none" y="2.952"  width="4.176" stroke="black" height="4.176" stroke-width="1.44" x="2.952"/>
       <circle cy="5.04" fill="none" id="connector0pin" r="2.088"  stroke="black" stroke-width="1.44" cx="5.04"/>
       <circle cy="12.24" fill="none" id="connector1pin" r="2.088"  stroke="black" stroke-width="1.44" cx="5.04"/>
      </g>
     </g>
    </g>
   </g>
  </g>
  <g partID="854129160">
   <line x2="44.8104" stroke="black" x1="44.8104" stroke-width="1.728" y2="41.9973" stroke-linecap="round" y1="10.2253"/>
  </g>
  <g partID="854129230">
   <line x2="52.0104" stroke="black" x1="52.0104" stroke-width="1.728" y2="41.9973" stroke-linecap="round" y1="10.2253"/>
  </g>
  <g partID="854129320">
   <line x2="73.6104" stroke="black" x1="73.6104" stroke-width="1.728" y2="41.9973" stroke-linecap="round" y1="10.2253"/>
  </g>
  <g partID="854129390">
   <line x2="80.8104" stroke="black" x1="80.8104" stroke-width="1.728" y2="41.9973" stroke-linecap="round" y1="10.2253"/>
  </g>
  <g partID="854129500">
   <line x2="124.01" stroke="black" x1="124.01" stroke-width="1.728" y2="41.9973" stroke-linecap="round" y1="10.2253"/>
  </g>
  <g partID="854129570">
   <line x2="131.21" stroke="black" x1="131.21" stroke-width="1.728" y2="41.9973" stroke-linecap="round" y1="10.2253"/>
  </g>
  <g partID="854129640">
   <line x2="152.81" stroke="black" x1="152.81" stroke-width="1.728" y2="41.9973" stroke-linecap="round" y1="10.2253"/>
  </g>
  <g partID="854129710">
   <line x2="160.01" stroke="black" x1="160.01" stroke-width="1.728" y2="41.9973" stroke-linecap="round" y1="10.2253"/>
  </g>
  <g partID="854129860">
   <line x2="52.0104" stroke="black" x1="52.0104" stroke-width="1.728" y2="67.7173" stroke-linecap="round" y1="106.689"/>
  </g>
  <g partID="854129930">
   <line x2="44.8104" stroke="black" x1="44.8104" stroke-width="1.728" y2="67.7173" stroke-linecap="round" y1="106.689"/>
  </g>
  <g partID="854130000">
   <line x2="73.6104" stroke="black" x1="73.6104" stroke-width="1.728" y2="67.7173" stroke-linecap="round" y1="106.689"/>
  </g>
  <g partID="854130070">
   <line x2="80.8104" stroke="black" x1="80.8104" stroke-width="1.728" y2="67.7173" stroke-linecap="round" y1="106.689"/>
  </g>
  <g partID="854130140">
   <line x2="124.01" stroke="black" x1="124.01" stroke-width="1.728" y2="67.7173" stroke-linecap="round" y1="106.689"/>
  </g>
  <g partID="854130210">
   <line x2="131.21" stroke="black" x1="131.21" stroke-width="1.728" y2="67.7173" stroke-linecap="round" y1="106.689"/>
  </g>
  <g partID="854130280">
   <line x2="152.81" stroke="black" x1="152.81" stroke-width="1.728" y2="67.7173" stroke-linecap="round" y1="106.689"/>
  </g>
  <g partID="854130350">
   <line x2="160.01" stroke="black" x1="160.01" stroke-width="1.728" y2="67.7173" stroke-linecap="round" y1="106.689"/>
  </g>
 </g>
</svg>
