<?xml version="1.0" encoding="UTF-8" standalone="no"?>
<svg
   xmlns:dc="http://purl.org/dc/elements/1.1/"
   xmlns:cc="http://creativecommons.org/ns#"
   xmlns:rdf="http://www.w3.org/1999/02/22-rdf-syntax-ns#"
   xmlns:svg="http://www.w3.org/2000/svg"
   xmlns="http://www.w3.org/2000/svg"
   xmlns:sodipodi="http://sodipodi.sourceforge.net/DTD/sodipodi-0.dtd"
   xmlns:inkscape="http://www.inkscape.org/namespaces/inkscape"
   width="210mm"
   height="297mm"
   viewBox="0 0 210 297"
   version="1.1"
   id="svg8"
   inkscape:version="1.0.2-2 (e86c870879, 2021-01-15)"
   sodipodi:docname="Parte D.svg">
  <defs
     id="defs2" />
  <sodipodi:namedview
     id="base"
     pagecolor="#ffffff"
     bordercolor="#666666"
     borderopacity="1.0"
     inkscape:pageopacity="0.0"
     inkscape:pageshadow="2"
     inkscape:zoom="0.7"
     inkscape:cx="338.20956"
     inkscape:cy="500.94499"
     inkscape:document-units="mm"
     inkscape:current-layer="layer1"
     inkscape:document-rotation="0"
     showgrid="false"
     inkscape:window-width="1258"
     inkscape:window-height="1041"
     inkscape:window-x="8"
     inkscape:window-y="0"
     inkscape:window-maximized="0" />
  <metadata
     id="metadata5">
    <rdf:RDF>
      <cc:Work
         rdf:about="">
        <dc:format>image/svg+xml</dc:format>
        <dc:type
           rdf:resource="http://purl.org/dc/dcmitype/StillImage" />
        <dc:title />
      </cc:Work>
    </rdf:RDF>
  </metadata>
  <g
     inkscape:label="Capa 1"
     inkscape:groupmode="layer"
     id="layer1">
    <g
       style="clip-rule:evenodd;fill-rule:evenodd;stroke-linecap:round;stroke-linejoin:round;stroke-miterlimit:1.5"
       id="g33"
       transform="matrix(-0.08435585,0,0,0.08446269,95.999573,-8.7934835e-5)">
      <rect
         x="2.0829999"
         y="2.0829999"
         width="1133.86"
         height="1724.41"
         style="fill:none;stroke:#000000;stroke-width:4.17px"
         id="rect10" />
      <path
         d="m 1041.45,97.753 c 0,-9.778 -7.938,-17.717 -17.716,-17.717 H 114.285 c -9.778,0 -17.716,7.939 -17.716,17.717 0,9.778 7.938,17.716 17.716,17.716 h 909.449 c 9.778,0 17.716,-7.938 17.716,-17.716 z"
         style="fill:none;stroke:#000000;stroke-width:4.17px"
         id="path12" />
      <path
         d="m 1041.45,831.086 c 0,-9.778 -7.938,-17.717 -17.716,-17.717 H 114.285 c -9.778,0 -17.716,7.939 -17.716,17.717 0,9.778 7.938,17.716 17.716,17.716 h 909.449 c 9.778,0 17.716,-7.938 17.716,-17.716 z"
         style="fill:none;stroke:#000000;stroke-width:4.17px"
         id="path14" />
      <path
         d="m 1041.45,1656.09 c 0,-9.778 -7.938,-17.717 -17.716,-17.717 H 114.285 c -9.778,0 -17.716,7.939 -17.716,17.717 0,9.778 7.938,17.716 17.716,17.716 h 909.449 c 9.778,0 17.716,-7.938 17.716,-17.716 z"
         style="fill:none;stroke:#000000;stroke-width:4.17px"
         id="path16" />
      <path
         d="m 1041.45,922.753 c 0,-9.778 -7.938,-17.717 -17.716,-17.717 H 114.285 c -9.778,0 -17.716,7.939 -17.716,17.717 0,9.778 7.938,17.716 17.716,17.716 h 909.449 c 9.778,0 17.716,-7.938 17.716,-17.716 z"
         style="fill:none;stroke:#000000;stroke-width:4.17px"
         id="path18" />
    </g>
  </g>
</svg>
