<?xml version="1.0" encoding="UTF-8" standalone="no"?>
<svg
   xmlns:dc="http://purl.org/dc/elements/1.1/"
   xmlns:cc="http://creativecommons.org/ns#"
   xmlns:rdf="http://www.w3.org/1999/02/22-rdf-syntax-ns#"
   xmlns:svg="http://www.w3.org/2000/svg"
   xmlns="http://www.w3.org/2000/svg"
   xmlns:sodipodi="http://sodipodi.sourceforge.net/DTD/sodipodi-0.dtd"
   xmlns:inkscape="http://www.inkscape.org/namespaces/inkscape"
   width="210mm"
   height="297mm"
   viewBox="0 0 210 297"
   version="1.1"
   id="svg8"
   inkscape:version="1.0.2-2 (e86c870879, 2021-01-15)"
   sodipodi:docname="Parte B.svg">
  <defs
     id="defs2" />
  <sodipodi:namedview
     id="base"
     pagecolor="#ffffff"
     bordercolor="#666666"
     borderopacity="1.0"
     inkscape:pageopacity="0.0"
     inkscape:pageshadow="2"
     inkscape:zoom="1.4"
     inkscape:cx="264.20609"
     inkscape:cy="275.33282"
     inkscape:document-units="mm"
     inkscape:current-layer="layer1"
     inkscape:document-rotation="0"
     showgrid="false"
     inkscape:window-width="1258"
     inkscape:window-height="1041"
     inkscape:window-x="0"
     inkscape:window-y="0"
     inkscape:window-maximized="0" />
  <metadata
     id="metadata5">
    <rdf:RDF>
      <cc:Work
         rdf:about="">
        <dc:format>image/svg+xml</dc:format>
        <dc:type
           rdf:resource="http://purl.org/dc/dcmitype/StillImage" />
        <dc:title />
      </cc:Work>
    </rdf:RDF>
  </metadata>
  <g
     inkscape:label="Capa 1"
     inkscape:groupmode="layer"
     id="layer1">
    <g
       style="clip-rule:evenodd;fill-rule:evenodd;stroke-linecap:round;stroke-linejoin:round;stroke-miterlimit:1.5"
       id="g135"
       transform="matrix(0.08436897,0,0,0.08417142,1.6660443e-4,1.704871e-4)">
      <g
         id="g20">
        <rect
           x="2.0829999"
           y="2.0829999"
           width="1181.1"
           height="708.66101"
           style="fill:none;stroke:#000000;stroke-width:4.17px"
           id="rect10" />
        <circle
           cx="747.10498"
           cy="281.414"
           r="94.487999"
           style="fill:none;stroke:#000000;stroke-width:4.17px"
           id="circle12" />
        <circle
           cx="438.673"
           cy="281.414"
           r="94.487999"
           style="fill:none;stroke:#000000;stroke-width:4.17px"
           id="circle14" />
        <circle
           cx="836.758"
           cy="184.66299"
           r="11.699"
           style="fill:none;stroke:#000000;stroke-width:4.17px"
           id="circle16" />
        <circle
           cx="349.216"
           cy="380.36099"
           r="11.699"
           style="fill:none;stroke:#000000;stroke-width:4.17px"
           id="circle18" />
      </g>
      <g
         id="g66">
        <path
           d="m 791.071,601.916 c -3.86,0 -6.991,3.137 -6.991,6.994 v 72.953 c 0,3.86 3.131,6.99 6.991,6.99 3.86,0 6.984,-3.13 6.984,-6.99 V 608.91 c 0,-3.856 -3.124,-6.994 -6.984,-6.994 z"
           style="fill:none;fill-rule:nonzero;stroke:#000000;stroke-width:4.17px;stroke-linecap:butt;stroke-miterlimit:2"
           id="path22" />
        <path
           d="m 827.366,582.364 h -72.589 c -3.889,0 -7.043,3.155 -7.043,7.049 0,3.89 3.154,7.043 7.043,7.043 h 72.589 c 3.888,0 7.036,-3.153 7.036,-7.043 0,-3.894 -3.148,-7.049 -7.036,-7.049 z"
           style="fill:none;fill-rule:nonzero;stroke:#000000;stroke-width:4.17px;stroke-linecap:butt;stroke-miterlimit:2"
           id="path24" />
        <path
           d="m 914.892,582.364 h -44.755 c -3.895,0 -7.05,3.155 -7.05,7.049 0,3.89 3.153,7.043 7.05,7.043 h 44.755 c 3.875,0 7.036,-3.153 7.036,-7.043 0,-3.894 -3.161,-7.049 -7.036,-7.049 z"
           style="fill:none;fill-rule:nonzero;stroke:#000000;stroke-width:4.17px;stroke-linecap:butt;stroke-miterlimit:2"
           id="path26" />
        <path
           d="m 850.681,582.42 c -3.86,0 -6.985,3.133 -6.985,6.993 v 92.45 c 0,3.86 3.125,6.99 6.985,6.99 3.861,0 6.986,-3.13 6.986,-6.99 v -92.45 c -0.002,-3.86 -3.127,-6.993 -6.986,-6.993 z"
           style="fill:none;fill-rule:nonzero;stroke:#000000;stroke-width:4.17px;stroke-linecap:butt;stroke-miterlimit:2"
           id="path28" />
        <path
           d="m 985.491,580.22 c -27.304,0 -51.144,19.776 -54.31,45.03 -0.479,3.825 2.232,7.311 6.068,7.8 0.293,0.035 0.584,0.053 0.875,0.053 3.468,0 6.482,-2.588 6.921,-6.122 2.297,-18.387 20.068,-32.79 40.446,-32.79 12.08,0 23.519,5.252 31.407,14.398 2.519,2.926 6.933,3.247 9.853,0.735 2.933,-2.525 3.249,-6.933 0.735,-9.859 -10.553,-12.232 -25.846,-19.245 -41.995,-19.245 z"
           style="fill:none;fill-rule:nonzero;stroke:#000000;stroke-width:4.17px;stroke-linecap:butt;stroke-miterlimit:2"
           id="path30" />
        <path
           d="m 686.311,673.525 c -12.081,-1.503 -20.838,-13.317 -20.838,-28.097 v -56.015 c 0,-3.86 -3.132,-6.993 -6.991,-6.993 -3.865,0 -6.99,3.133 -6.99,6.993 v 56.015 c 0,21.941 13.917,39.583 33.087,41.961 0.298,0.041 0.601,0.064 0.875,0.064 3.487,0 6.489,-2.595 6.92,-6.129 0.485,-3.834 -2.244,-7.321 -6.063,-7.799 z"
           style="fill:none;fill-rule:nonzero;stroke:#000000;stroke-width:4.17px;stroke-linecap:butt;stroke-miterlimit:2"
           id="path32" />
        <path
           d="m 1167.36,520.88 c -3.086,0 -5.587,2.507 -5.587,5.591 v 39.217 c 0,3.084 2.501,5.591 5.587,5.591 3.102,0 5.596,-2.507 5.596,-5.591 v -39.217 c 0,-3.084 -2.496,-5.591 -5.596,-5.591 z"
           style="fill:none;fill-rule:nonzero;stroke:#000000;stroke-width:4.17px;stroke-linecap:butt;stroke-miterlimit:2"
           id="path34" />
        <path
           d="m 1048.83,571.277 c 3.091,0 5.603,-2.507 5.603,-5.591 v -39.215 c 0,-3.084 -2.512,-5.591 -5.603,-5.591 -3.096,0 -5.591,2.507 -5.591,5.591 v 39.217 c 0,3.082 2.497,5.589 5.591,5.589 z"
           style="fill:none;fill-rule:nonzero;stroke:#000000;stroke-width:4.17px;stroke-linecap:butt;stroke-miterlimit:2"
           id="path36" />
        <path
           d="m 1157.53,499.736 -33.956,-19.616 c -2.681,-1.551 -6.084,-0.633 -7.636,2.035 -1.544,2.681 -0.63,6.096 2.052,7.646 l 33.949,19.617 c 0.879,0.508 1.836,0.749 2.78,0.749 1.936,0 3.817,-1.003 4.868,-2.794 1.543,-2.672 0.621,-6.095 -2.057,-7.637 z"
           style="fill:none;fill-rule:nonzero;stroke:#000000;stroke-width:4.17px;stroke-linecap:butt;stroke-miterlimit:2"
           id="path38" />
        <path
           d="m 1098.22,602.366 -33.956,-19.62 c -2.676,-1.547 -6.099,-0.633 -7.638,2.035 -1.55,2.68 -0.636,6.101 2.04,7.647 l 33.951,19.623 c 0.868,0.504 1.841,0.754 2.786,0.754 1.935,0 3.806,-1.008 4.857,-2.801 1.545,-2.668 0.623,-6.091 -2.04,-7.638 z"
           style="fill:none;fill-rule:nonzero;stroke:#000000;stroke-width:4.17px;stroke-linecap:butt;stroke-miterlimit:2"
           id="path40" />
        <path
           d="m 1061.45,510.166 c 0.962,0 1.925,-0.242 2.811,-0.75 l 33.961,-19.616 c 2.671,-1.551 3.585,-4.965 2.035,-7.647 -1.55,-2.668 -4.962,-3.585 -7.643,-2.035 l -33.951,19.616 c -2.676,1.542 -3.592,4.965 -2.04,7.635 1.032,1.794 2.903,2.797 4.827,2.797 z"
           style="fill:none;fill-rule:nonzero;stroke:#000000;stroke-width:4.17px;stroke-linecap:butt;stroke-miterlimit:2"
           id="path42" />
        <path
           d="m 1151.94,582.746 -33.949,19.62 c -2.671,1.547 -3.597,4.97 -2.042,7.638 1.028,1.793 2.922,2.801 4.845,2.801 0.944,0 1.907,-0.25 2.78,-0.754 l 33.956,-19.623 c 2.678,-1.546 3.599,-4.967 2.058,-7.647 -1.566,-2.67 -4.976,-3.584 -7.648,-2.035 z"
           style="fill:none;fill-rule:nonzero;stroke:#000000;stroke-width:4.17px;stroke-linecap:butt;stroke-miterlimit:2"
           id="path44" />
        <path
           d="m 1108.09,486.661 c -3.095,0 -5.583,2.504 -5.583,5.591 v 39.212 c 0,3.087 2.489,5.598 5.583,5.598 3.103,0 5.6,-2.511 5.6,-5.598 v -39.212 c 0,-3.087 -2.497,-5.591 -5.6,-5.591 z"
           style="fill:none;fill-rule:nonzero;stroke:#000000;stroke-width:4.17px;stroke-linecap:butt;stroke-miterlimit:2"
           id="path46" />
        <path
           d="m 1108.09,555.098 c -3.095,0 -5.583,2.508 -5.583,5.595 v 39.212 c 0,3.085 2.489,5.591 5.583,5.591 3.103,0 5.6,-2.504 5.6,-5.591 v -39.212 c 0,-3.087 -2.497,-5.595 -5.6,-5.595 z"
           style="fill:none;fill-rule:nonzero;stroke:#000000;stroke-width:4.17px;stroke-linecap:butt;stroke-miterlimit:2"
           id="path48" />
        <path
           d="m 1120.76,544.373 c 0.944,0 1.92,-0.242 2.777,-0.747 l 33.995,-19.581 c 2.678,-1.538 3.599,-4.965 2.058,-7.635 -1.553,-2.677 -4.966,-3.592 -7.648,-2.054 l -33.978,19.582 c -2.672,1.542 -3.568,4.96 -2.049,7.635 1.043,1.8 2.915,2.8 4.845,2.8 z"
           style="fill:none;fill-rule:nonzero;stroke:#000000;stroke-width:4.17px;stroke-linecap:butt;stroke-miterlimit:2"
           id="path50" />
        <path
           d="m 1092.65,548.531 -33.987,19.581 c -2.676,1.538 -3.592,4.965 -2.045,7.64 1.037,1.796 2.91,2.802 4.85,2.802 0.944,0 1.907,-0.245 2.786,-0.75 l 33.979,-19.585 c 2.672,-1.539 3.587,-4.955 2.044,-7.628 -1.529,-2.675 -4.957,-3.598 -7.627,-2.06 z"
           style="fill:none;fill-rule:nonzero;stroke:#000000;stroke-width:4.17px;stroke-linecap:butt;stroke-miterlimit:2"
           id="path52" />
        <path
           d="m 1098.23,533.94 -33.979,-19.582 c -2.681,-1.539 -6.104,-0.623 -7.638,2.053 -1.545,2.67 -0.631,6.098 2.046,7.635 l 33.986,19.582 c 0.88,0.505 1.835,0.746 2.775,0.746 1.942,0 3.82,-0.999 4.854,-2.799 1.543,-2.677 0.629,-6.093 -2.044,-7.635 z"
           style="fill:none;fill-rule:nonzero;stroke:#000000;stroke-width:4.17px;stroke-linecap:butt;stroke-miterlimit:2"
           id="path54" />
        <path
           d="m 1117.96,558.22 33.978,19.586 c 0.88,0.504 1.837,0.749 2.78,0.749 1.937,0 3.818,-1.006 4.868,-2.801 1.542,-2.675 0.62,-6.104 -2.068,-7.64 l -33.985,-19.582 c -2.665,-1.537 -6.075,-0.615 -7.623,2.062 -1.518,2.671 -0.622,6.088 2.05,7.626 z"
           style="fill:none;fill-rule:nonzero;stroke:#000000;stroke-width:4.17px;stroke-linecap:butt;stroke-miterlimit:2"
           id="path56" />
        <path
           d="m 731.455,582.42 c -3.853,0 -6.997,3.133 -6.997,6.993 v 56.015 c 0,15.027 -8.453,26.581 -20.586,28.097 -3.819,0.478 -6.537,3.965 -6.058,7.807 0.437,3.528 3.451,6.122 6.926,6.122 0.291,0 0.589,-0.023 0.881,-0.064 19.018,-2.377 32.825,-20.021 32.825,-41.96 v -56.017 c 0,-3.86 -3.126,-6.993 -6.991,-6.993 z"
           style="fill:none;fill-rule:nonzero;stroke:#000000;stroke-width:4.17px;stroke-linecap:butt;stroke-miterlimit:2"
           id="path58" />
        <path
           d="m 985.491,691.157 c -27.304,0 -51.144,-19.776 -54.31,-45.022 -0.479,-3.837 2.232,-7.335 6.068,-7.814 0.293,-0.034 0.584,-0.051 0.875,-0.051 3.468,0 6.482,2.581 6.921,6.127 2.297,18.379 20.068,32.779 40.446,32.779 12.08,0 23.519,-5.248 31.407,-14.39 2.519,-2.927 6.933,-3.254 9.853,-0.733 2.933,2.517 3.249,6.932 0.735,9.864 -10.553,12.22 -25.846,19.24 -41.995,19.24 z"
           style="fill:none;fill-rule:nonzero;stroke:#000000;stroke-width:4.17px;stroke-linecap:butt;stroke-miterlimit:2"
           id="path60" />
        <path
           d="m 914.892,674.813 h -44.755 c -3.895,0 -7.05,3.155 -7.05,7.05 0,3.893 3.153,7.048 7.05,7.048 h 44.755 c 3.875,0 7.036,-3.155 7.036,-7.048 0,-3.895 -3.161,-7.05 -7.036,-7.05 z"
           style="fill:none;fill-rule:nonzero;stroke:#000000;stroke-width:4.17px;stroke-linecap:butt;stroke-miterlimit:2"
           id="path62" />
        <path
           d="m 903.662,627.413 h -33.525 c -3.895,0 -7.05,3.153 -7.05,7.048 0,3.888 3.153,7.043 7.05,7.043 h 33.525 c 3.883,0 7.043,-3.155 7.043,-7.043 0,-3.895 -3.16,-7.048 -7.043,-7.048 z"
           style="fill:none;fill-rule:nonzero;stroke:#000000;stroke-width:4.17px;stroke-linecap:butt;stroke-miterlimit:2"
           id="path64" />
      </g>
      <g
         id="g86">
        <path
           d="m 27.09,682.418 v -63.755 h 12.699 l 15.091,45.142 c 1.391,4.203 2.406,7.349 3.044,9.437 0.725,-2.32 1.855,-5.726 3.392,-10.22 L 76.58,618.663 h 11.351 v 63.755 h -8.132 v -53.361 l -18.527,53.361 h -7.61 L 35.223,628.144 v 54.274 z"
           style="fill:none;fill-rule:nonzero;stroke:#000000;stroke-width:4.17px;stroke-linecap:butt;stroke-miterlimit:2"
           id="path68" />
        <path
           d="m 101.717,682.418 v -63.755 h 46.098 v 7.524 h -37.661 v 19.526 h 35.269 v 7.48 h -35.269 v 21.701 h 39.14 v 7.524 z"
           style="fill:none;fill-rule:nonzero;stroke:#000000;stroke-width:4.17px;stroke-linecap:butt;stroke-miterlimit:2"
           id="path70" />
        <path
           d="m 160.862,682.418 v -63.755 h 8.654 l 33.486,50.056 v -50.056 h 8.089 v 63.755 h -8.654 l -33.486,-50.099 v 50.099 z"
           style="fill:none;fill-rule:nonzero;stroke:#000000;stroke-width:4.17px;stroke-linecap:butt;stroke-miterlimit:2"
           id="path72" />
        <path
           d="m 241.49,682.418 v -56.231 h -21.005 v -7.524 h 50.534 v 7.524 h -21.092 v 56.231 z"
           style="fill:none;fill-rule:nonzero;stroke:#000000;stroke-width:4.17px;stroke-linecap:butt;stroke-miterlimit:2"
           id="path74" />
        <path
           d="m 266.061,682.418 24.484,-63.755 h 9.089 l 26.094,63.755 h -9.611 l -7.437,-19.309 h -26.659 l -7.001,19.309 z m 18.396,-26.181 h 21.614 l -6.654,-17.656 c -2.03,-5.364 -3.537,-9.77 -4.523,-13.221 -0.812,4.088 -1.957,8.147 -3.436,12.177 z"
           style="fill:none;fill-rule:nonzero;stroke:#000000;stroke-width:4.17px;stroke-linecap:butt;stroke-miterlimit:2"
           id="path76" />
        <path
           d="m 332.12,682.418 v -63.755 h 8.437 v 56.231 h 31.399 v 7.524 z"
           style="fill:none;fill-rule:nonzero;stroke:#000000;stroke-width:4.17px;stroke-linecap:butt;stroke-miterlimit:2"
           id="path78" />
        <rect
           x="383.43701"
           y="618.66302"
           width="8.4370003"
           height="63.755001"
           style="fill:none;fill-rule:nonzero;stroke:#000000;stroke-width:4.17px;stroke-linecap:butt;stroke-miterlimit:2"
           id="rect80" />
        <path
           d="m 406.66,682.418 v -63.755 h 8.655 l 33.486,50.056 v -50.056 h 8.089 v 63.755 h -8.654 l -33.487,-50.099 v 50.099 z"
           style="fill:none;fill-rule:nonzero;stroke:#000000;stroke-width:4.17px;stroke-linecap:butt;stroke-miterlimit:2"
           id="path82" />
        <path
           d="m 470.719,682.418 v -63.755 h 8.437 v 31.617 l 31.66,-31.617 h 11.437 l -26.745,25.832 27.92,37.923 h -11.134 l -22.701,-32.269 -10.437,10.176 v 22.093 z"
           style="fill:none;fill-rule:nonzero;stroke:#000000;stroke-width:4.17px;stroke-linecap:butt;stroke-miterlimit:2"
           id="path84" />
      </g>
    </g>
    <g
       gcodetools="Gcodetools orientation group"
       id="g106">
      <g
         gcodetools="Gcodetools orientation point (2 points)"
         id="g96">
        <path
           style="stroke:none;fill:#000000;"
           gcodetools="Gcodetools orientation point arrow"
           d="m 0 297 l 2.9375 -6.34375 l 0.8125 1.90625 l 6.84375 -6.84375 l 0 0 l 0.6875 0.6875 l -6.84375 6.84375 l 1.90625 0.8125 z"
           id="path90" />
        <text
           x="10.0"
           y="287.0"
           style="font-family:DejaVu Sans;font-style:normal;font-variant:normal;font-weight:normal;font-stretch:normal;font-family:DejaVu Sans;fill:#000000;fill-opacity:1;stroke:none;font-size:10.000000px;"
           gcodetools="Gcodetools orientation point text"
           xml:space="preserve"
           id="text94"><tspan
             x="10.0"
             y="287.0"
             sodipodi:role="line"
             id="tspan92">(0.0; 0.0; 0.0)</tspan></text>
      </g>
      <g
         gcodetools="Gcodetools orientation point (2 points)"
         id="g104">
        <path
           style="stroke:none;fill:#000000;"
           gcodetools="Gcodetools orientation point arrow"
           d="m 100 297 l 2.9375 -6.34375 l 0.8125 1.90625 l 6.84375 -6.84375 l 0 0 l 0.6875 0.6875 l -6.84375 6.84375 l 1.90625 0.8125 z"
           id="path98" />
        <text
           x="110.0"
           y="287.0"
           style="font-family:DejaVu Sans;font-style:normal;font-variant:normal;font-weight:normal;font-stretch:normal;font-family:DejaVu Sans;fill:#000000;fill-opacity:1;stroke:none;font-size:10.000000px;"
           gcodetools="Gcodetools orientation point text"
           xml:space="preserve"
           id="text102"><tspan
             x="110.0"
             y="287.0"
             sodipodi:role="line"
             id="tspan100">(100.0; 0.0; 0.0)</tspan></text>
      </g>
    </g>
  </g>
</svg>
